HIERARCHY
ROOT Hips
{
	OFFSET 0.000000 0.000000 0.000000
	CHANNELS 6 Xposition Yposition Zposition Zrotation Yrotation Xrotation 
	JOINT LHipJoint
	{
		OFFSET 0.000000 0.000000 0.000000
		CHANNELS 3 Zrotation Yrotation Xrotation
		JOINT LeftUpLeg
		{
			OFFSET 1.363060 -1.794630 0.839290
			CHANNELS 3 Zrotation Yrotation Xrotation
			JOINT LeftLeg
			{
				OFFSET 2.448110 -6.726130 0.000000
				CHANNELS 3 Zrotation Yrotation Xrotation
				JOINT LeftFoot
				{
					OFFSET 2.562200 -7.039590 0.000000
					CHANNELS 3 Zrotation Yrotation Xrotation
					JOINT LeftToeBase
					{
						OFFSET 0.157640 -0.433110 2.322550
						CHANNELS 3 Zrotation Yrotation Xrotation
						End Site
						{
							OFFSET 0.000000 0.000000 0.000000
						}
					}
				}
			}
		}
	}
	JOINT RHipJoint
	{
		OFFSET 0.000000 0.000000 0.000000
		CHANNELS 3 Zrotation Yrotation Xrotation
		JOINT RightUpLeg
		{
			OFFSET -1.305520 -1.794630 0.839290
			CHANNELS 3 Zrotation Yrotation Xrotation
			JOINT RightLeg
			{
				OFFSET -2.542530 -6.985550 0.000000
				CHANNELS 3 Zrotation Yrotation Xrotation
				JOINT RightFoot
				{
					OFFSET -2.568260 -7.056230 0.000000
					CHANNELS 3 Zrotation Yrotation Xrotation
					JOINT RightToeBase
					{
						OFFSET -0.164730 -0.452590 2.363150
						CHANNELS 3 Zrotation Yrotation Xrotation
						End Site
						{
							OFFSET 0.000000 0.000000 0.000000
						}
					}
				}
			}
		}
	}
	JOINT LowerBack
	{
		OFFSET 0.000000 0.000000 0.000000
		CHANNELS 3 Zrotation Yrotation Xrotation
		JOINT Spine
		{
			OFFSET 0.028270 2.035590 -0.193380
			CHANNELS 3 Zrotation Yrotation Xrotation
			JOINT Spine1
			{
				OFFSET 0.056720 2.048850 -0.042750
				CHANNELS 3 Zrotation Yrotation Xrotation
				JOINT Neck
				{
					OFFSET 0.000000 0.000000 0.000000
					CHANNELS 3 Zrotation Yrotation Xrotation
					JOINT Neck1
					{
						OFFSET -0.054170 1.746240 0.172020
						CHANNELS 3 Zrotation Yrotation Xrotation
						JOINT Head
						{
							OFFSET 0.104070 1.761360 -0.123970
							CHANNELS 3 Zrotation Yrotation Xrotation
							End Site
							{
								OFFSET 0.000000 0.000000 0.000000
							}
						}
					}
				}
				JOINT LeftShoulder
				{
					OFFSET 0.000000 0.000000 0.000000
					CHANNELS 3 Zrotation Yrotation Xrotation
					JOINT LeftArm
					{
						OFFSET 3.362410 1.200890 -0.311210
						CHANNELS 3 Zrotation Yrotation Xrotation
						JOINT LeftForeArm
						{
							OFFSET 4.983000 -0.000000 -0.000000
							CHANNELS 3 Zrotation Yrotation Xrotation
							JOINT LeftHand
							{
								OFFSET 3.483560 -0.000000 -0.000000
								CHANNELS 3 Zrotation Yrotation Xrotation
								JOINT LeftFingerBase
								{
									OFFSET 0.000000 0.000000 0.000000
									CHANNELS 3 Zrotation Yrotation Xrotation
									JOINT LeftHandIndex1
									{
										OFFSET 0.715260 -0.000000 -0.000000
										CHANNELS 3 Zrotation Yrotation Xrotation
										End Site
										{
											OFFSET 0.000000 0.000000 0.000000
										}
									}
								}
								JOINT LThumb
								{
									OFFSET 0.000000 0.000000 0.000000
									CHANNELS 3 Zrotation Yrotation Xrotation
									End Site
									{
										OFFSET 0.000000 0.000000 0.000000
									}
								}
							}
						}
					}
				}
				JOINT RightShoulder
				{
					OFFSET 0.000000 0.000000 0.000000
					CHANNELS 3 Zrotation Yrotation Xrotation
					JOINT RightArm
					{
						OFFSET -3.136600 1.374050 -0.404650
						CHANNELS 3 Zrotation Yrotation Xrotation
						JOINT RightForeArm
						{
							OFFSET -5.241900 -0.000000 -0.000000
							CHANNELS 3 Zrotation Yrotation Xrotation
							JOINT RightHand
							{
								OFFSET -3.444170 -0.000000 -0.000000
								CHANNELS 3 Zrotation Yrotation Xrotation
								JOINT RightFingerBase
								{
									OFFSET 0.000000 0.000000 0.000000
									CHANNELS 3 Zrotation Yrotation Xrotation
									JOINT RightHandIndex1
									{
										OFFSET -0.622530 -0.000000 -0.000000
										CHANNELS 3 Zrotation Yrotation Xrotation
										End Site
										{
											OFFSET 0.000000 0.000000 0.000000
										}
									}
								}
								JOINT RThumb
								{
									OFFSET 0.000000 0.000000 0.000000
									CHANNELS 3 Zrotation Yrotation Xrotation
									End Site
									{
										OFFSET 0.000000 0.000000 0.000000
									}
								}
							}
						}
					}
				}
			}
		}
	}
}
MOTION
Frames: 4
Frame Time: 0.008333
1.681427 17.658579 -32.375997 6.581646 2.544578 1.733442 -0.624350 2.296917 2.671096 -27.294092 -0.839541 3.826898 -0.277463 5.210253 17.986808 0.538358 -0.009007 -3.318465 0.028500 -1.089300 -2.994400 -0.951919 -1.709308 0.063909 8.451542 11.381921 -27.133968 0.553938 -4.359867 10.638601 3.651763 -17.092172 6.534417 -0.000300 -0.103500 0.284200 -6.212356 -1.150593 5.082396 0.484952 -2.007457 -1.367354 5.223546 -0.977693 -1.164583 -7.564642 -2.399751 -11.219285 3.406688 -2.245959 13.147834 2.729400 -1.522700 9.093500 -7.413648 2.348238 -2.176745 -79.902090 -10.340576 29.961762 14.373404 -26.072412 -5.237492 0.273312 -0.744779 5.652354 0.345395 -0.714221 0.000000 0.000000 0.000000 0.000000 0.000000 0.000000 0.000000 6.204136 -2.182700 -2.064292 82.387062 -3.859956 1.769600 -11.183028 17.444884 -2.360419 0.944249 -0.930734 14.046679 -13.403775 11.507037 -3.123800 7.125000 0.000000 0.000000 8.814100 -17.536000 5.818300 
1.657262 17.647473 -32.188441 6.772869 2.982419 1.832584 -0.621650 2.357204 2.718704 -27.263101 -0.961112 4.655955 -0.331139 5.040737 17.547362 0.603475 -0.301602 -3.037525 0.031400 -1.143000 -3.142300 -0.889156 -1.761639 0.073765 7.692580 11.910228 -26.102738 0.758220 -3.346107 7.923188 3.788193 -17.416047 6.154698 -0.001800 0.274100 -0.753100 -6.412317 -1.286094 5.112180 0.478217 -2.203241 -1.410213 5.322268 -1.069623 -1.312365 -7.467254 -2.343801 -10.984322 3.379828 -2.204226 12.891322 2.696600 -1.489800 8.915200 -7.395568 2.373728 -2.205384 -79.774253 -10.281249 30.267229 14.687073 -26.532385 -5.435730 0.274513 -0.751754 5.280885 0.342597 -0.723281 0.000000 0.000000 0.000000 0.000000 0.000000 0.000000 0.000000 6.244038 -2.222492 -2.032408 82.377322 -4.270663 -0.268669 -10.627493 16.636963 -2.117817 0.972174 -1.281519 16.518031 -14.548182 13.503579 -4.038000 7.125000 0.000000 0.000000 7.921300 -15.129300 5.634200 
1.629088 17.637293 -32.009625 6.796460 2.961896 2.072541 -0.624105 2.384201 2.729970 -27.147134 -1.091659 4.942761 -0.296509 5.124284 17.788705 0.665156 -0.512784 -3.133620 0.027000 -1.061700 -2.918700 -0.818837 -1.811782 0.097538 7.904923 11.221568 -25.286092 0.966088 -2.120176 4.734582 3.421887 -16.352012 7.214260 -0.040100 1.293100 -3.555600 -6.472333 -1.297879 4.802781 0.490952 -2.201646 -1.402004 5.387792 -1.074265 -1.168005 -7.557238 -2.385176 -10.839116 3.435797 -2.252531 12.789345 2.739300 -1.510500 8.833200 -7.337983 2.364412 -2.236416 -79.670137 -10.422530 31.179748 15.176907 -26.868374 -4.921243 -0.953541 -3.742367 5.564318 14.870415 26.062492 7.879200 -7.125000 0.000000 0.000000 -18.072500 59.906600 -6.706400 6.192491 -2.198071 -2.039219 82.485659 -4.291455 0.525594 -11.147175 17.289553 -2.298198 1.088298 -0.207593 13.494561 -13.485565 5.328981 -1.365100 7.125000 0.000000 0.000000 9.008000 -24.554800 4.503300 
1.608625 17.616625 -31.823405 6.777861 3.214276 2.055671 -0.620605 2.464761 2.746841 -26.995521 -1.428415 5.639500 -0.262334 5.210828 18.026746 0.697400 -0.630627 -3.152004 0.030600 -1.129000 -3.103700 -0.702065 -1.982839 0.185287 8.258286 9.779413 -23.021293 1.142956 -0.063246 -0.580558 3.092886 -15.805375 9.451946 -0.091500 1.951000 -5.370400 -6.385467 -1.397170 4.737271 0.503372 -2.321661 -1.350394 5.360824 -1.142198 -0.981004 -7.607154 -2.445337 -10.900839 3.457961 -2.326287 12.998822 2.756700 -1.552600 8.938000 -7.331930 2.372862 -2.228225 -79.657798 -10.843682 31.150963 15.227227 -26.940417 -4.985068 -0.963988 -3.585588 5.480968 14.895883 24.412178 7.474200 -7.125000 0.000000 0.000000 -16.785000 58.190500 -5.517600 6.186675 -2.198447 -2.015335 82.559665 -4.280207 0.055012 -11.037370 16.997527 -2.136174 1.732385 -0.350990 14.019711 -19.320658 5.102404 -1.912200 7.125000 0.000000 0.000000 4.177300 -24.658300 2.058800 
